<?xml version="1.0" encoding="UTF-8"?>
<!-- Created with Inkscape (http://www.inkscape.org/) -->
<svg id="svg2" width="608" height="200" version="1.1" viewBox="0 0 608 200" xmlns="http://www.w3.org/2000/svg" xmlns:cc="http://creativecommons.org/ns#" xmlns:dc="http://purl.org/dc/elements/1.1/" xmlns:rdf="http://www.w3.org/1999/02/22-rdf-syntax-ns#">
 <metadata id="metadata7">
  <rdf:RDF>
   <cc:Work rdf:about="">
    <dc:format>image/svg+xml</dc:format>
    <dc:type rdf:resource="http://purl.org/dc/dcmitype/StillImage"/>
    <dc:title/>
   </cc:Work>
  </rdf:RDF>
 </metadata>
 <g id="layer1" transform="translate(0 -852.36)" fill="#fff">
  <path id="path4150" d="m114.34 904.36c-25.405 0-46 21.49-46 48s20.595 48 46 48c11.953-0.019 23.43-4.8922 32-13.588v13.588h14v-48c0-26.51-20.595-48-46-48zm0 14a32.583 34 0 0 1 32.584 34 32.583 34 0 0 1-32.584 34 32.583 34 0 0 1-32.584-34 32.583 34 0 0 1 32.584-34z"/>
  <path id="path4161" d="m222.34 904.36a46 48 0 0 0-46 48 46 48 0 0 0 46 48 46 48 0 0 0 41.328-27h-15.748a32.583 34 0 0 1-25.58 13 32.583 34 0 0 1-32.584-34 32.583 34 0 0 1 32.584-34 32.583 34 0 0 1 25.615 13h15.686a46 48 0 0 0-41.301-27z"/>
  <path id="path4144" d="m325.66 904.36a46 48 0 0 0-46 48 46 48 0 0 0 46 48 46 48 0 0 0 41.328-27h-15.766a32.583 34 0 0 1-25.562 13 32.583 34 0 0 1-31.848-27h29.848 33.873 13.592a46 48 0 0 0 0.53516-7 46 48 0 0 0-46-48zm0 14a32.583 34 0 0 1 31.848 27h-63.721a32.583 34 0 0 1 31.873-27z"/>
  <path id="path4272" d="m557.66 904.36a46 48 0 0 0-46 48 46 48 0 0 0 46 48 46 48 0 0 0 41.328-27h-15.766a32.583 34 0 0 1-25.562 13 32.583 34 0 0 1-31.848-27h29.848 33.873 13.592a46 48 0 0 0 0.53516-7 46 48 0 0 0-46-48zm0 14a32.583 34 0 0 1 31.848 27h-63.721a32.583 34 0 0 1 31.873-27z"/>
  <path id="rect4173" d="m42.336 872.36c-13.255 0-24 8.0589-24 18v14h-14v14h14v82h14v-82h24v-14h-24v-10.5c0-4.1421 4.4772-7.5 10-7.5h14v-14h-14z"/>
  <path id="path4362" d="m461.66 872.36v32h-14v14h14v82h14v-82h24v-14h-24v-32z"/>
  <path id="path4374" d="m397.66 872.36v32h-14v14h14v82h14v-82h24v-14h-24v-32z"/>
 </g>
</svg>
